<svg xmlns="http://www.w3.org/2000/svg" viewBox="121.76000091552734 106.52999877929688 331.489990234375 294.7350025177002"> <svg xmlns="http://www.w3.org/2000/svg" xmlns:xlink="http://www.w3.org/1999/xlink" version="1.1" id="nnnn_1" x="233.5" y="176.52999877929688" viewBox="1751 784.7999877929688 1498 1430.39990234375" xml:space="preserve" height="103.1262489948685" width="108" preserveAspectRatio="xMinYMin" enable-background="new 0 0 5000 3000" style="overflow: visible;"><path d="M2521.3,1460l-0.8-1.9c-0.9-2.1-22.1-51.3-71.5-61.6c-39.3-8.2-83.7,10.5-132.1,55.8c-17.2,1.9-88.1,13.2-136.6,71.7   c-37,44.6-51.6,105.2-43.4,180.2c-13.2,25.6-100.6,207.2,35.3,308.5c6.1,24,42.8,147.6,156,170.7c8.9,6.9,43.7,31.8,83.1,31.8   c2.9,0,5.8-0.1,8.8-0.4c23.2-2.3,43.2-13.5,59.6-33.3c8.1-6,37.4-33.9,41.6-126.8c4.5-98.6,0.1-587.7,0-592.6L2521.3,1460z    M2502.8,1747c-11.4-25-23.9-63.3-22.1-108.3c1.2-29.8-1.9-57.3-6.4-80.6c6.3-5.2,17.2-15.1,27.3-28.9   C2501.9,1583.5,2502.5,1664.2,2502.8,1747z M2467.5,2165.2l-2.7,2.3c-13,16.2-28.7,25.2-46.7,27c-23,2.2-45.7-7.6-60.9-16.3   l18.3-4.3l-37.8-8.9l-0.7-0.6l-2.6-0.5c-111.6-21.1-143.1-158-143.4-159.4l-0.8-3.8l-1.2-0.9c-2.6-5.6-5.1-11.4-7.1-17.2   c-1.3-3.7-2.4-7.4-3.1-11.2c-0.5-3.6-1.6-8.2,2.4-9.8c-2.1-0.4-4.2,1.4-5.3,3.4c-1,2-1.7,4.1-2.2,6.2c-1,4.2-1.6,8.4-1.9,12.6   c-0.1,0.7-0.1,1.5-0.1,2.2c-45-40.1-62.5-95.9-51.7-166.4c5.6-36.5,17.7-68.6,26.4-88.2c1.2,2.5,2.3,5.1,3.7,7.5   c5.4,9.7,12.2,18.6,19.9,26.1c-4.9-9.6-8.4-19.6-10.4-29.7c-1-5.1-1.7-10.1-2.1-15.2c-0.3-3.6-0.3-7.4-0.2-10.9l0.5-0.9l-0.4-3.3   c-8.3-70.6,4.6-127.1,38.3-167.8c48.7-58.8,125.5-64.9,126.3-64.9l3.7-0.3l2.6-2.5c38.1-36.2,72.4-54.5,102.3-54.5   c4.8,0,9.5,0.5,14,1.4c34.4,7.1,52.5,40.1,56.3,48c0,3.5,0.1,10.9,0.2,21.6c-6.6,21.9-21.4,39.3-32.1,49.6   c-7.2-27.8-15.5-46.5-17.8-51.3c-0.4-0.9-0.8-1.7-1.2-2.3l-16.7,9.6l-1,0.3c0.3,0.9,6.7,24.4-47.2,123.1   c-3.3,6.1-6.1,12.2-8.8,18.3c-22.4-39.5-67.2-50.7-90.7-50.7h-21.9l14.2,16.7c27.3,32.2,30.9,99.6,31.2,126.3   c-18.4-2-33.5-0.2-34.9-0.1l-7.4,0.9l-1.3,7.4c-6.3,35.7,9.2,73.4,19.8,93.8c-17.8-0.7-29.3,0.6-29.7,0.7l-10,1.3l1.3,10   c12.4,99.5,61.7,156.8,100.7,187.5c-23.9-0.2-40.3,4.8-40.7,5l-10.3,3.4l4,10.1c40,99.6,130.1,111.8,172,111.8c0.8,0,1.4,0,2.1,0   C2470.5,2163,2467.5,2165.1,2467.5,2165.2z M2354.9,1769.2c2.2,31.2,8.2,57.3,13.1,74.4c-20.9-7.6-40.9-11.8-58.2-14   c-5.7-9.4-27.8-48.3-25.2-84.6C2301.4,1744.2,2340.6,1745.4,2354.9,1769.2z M2329.6,1729.3c0-21.9-2-81.8-23.2-123.5   c20.1,5,49.1,18.4,59.4,54l0.6-0.2c-8.6,27.6-12,54.9-12.4,80.3C2346.5,1735,2338.1,1731.6,2329.6,1729.3z M2324.2,2048.9   c28.3-4.6,103.9-6.7,152.9,88C2443.5,2137.5,2363.4,2130.6,2324.2,2048.9z M2501,2053.7c-1.3,28.8-5.1,50.4-9.8,66.7   c-25.3-45.6-56.7-69.7-86.3-81.9l0.1-0.2c-4.7-1.8-113.5-44.9-136.5-190.7c41.3-2.1,192.2,3.7,233,190.3   C2501.4,2043.8,2501.2,2049.2,2501,2053.7z M2502.6,1973.8c-26.8-62.8-68.4-99-109.8-119.6c-6.7-18.9-42.9-131.9,10.4-229.6   c23.4-42.9,36.4-73.3,43.2-94.7c7.8,26.5,15.7,64.9,13.9,108c-3.3,83.1,37,143.4,42.6,151.3   C2503.1,1856.7,2503,1922.7,2502.6,1973.8z" style="fill: #CD8E33; fill-opacity: 1;"></path><path d="M2898.5,1523.9c-48.5-58.4-119.4-69.7-136.6-71.7c-48.4-45.2-92.9-64-132.1-55.8c-49.4,10.3-70.6,59.5-71.5,61.6l-0.8,1.9   l0,2c0,4.9-4.5,494,0,592.6c4.2,92.9,33.5,120.8,41.6,126.8c16.4,19.9,36.5,31.1,59.6,33.3c2.9,0.3,5.9,0.4,8.8,0.4   c39.3,0,74.2-24.9,83.1-31.8c113.3-23.1,149.9-146.7,156-170.7c135.9-101.3,48.6-283,35.3-308.5   C2950.1,1629.1,2935.5,1568.5,2898.5,1523.9z M2577.2,1529.2c10.1,13.8,20.9,23.7,27.3,28.9c-4.5,23.3-7.6,50.7-6.4,80.6   c1.8,45-10.7,83.3-22.1,108.3C2576.2,1664.2,2576.8,1583.5,2577.2,1529.2z M2575.8,1789.2c5.6-7.9,45.9-68.2,42.6-151.3   c-1.7-43,6.2-81.4,14-108c6.8,21.4,19.8,51.7,43.2,94.6c53.2,97.5,17.1,210.8,10.4,229.6c-41.5,20.6-83,56.8-109.8,119.6   C2575.7,1922.7,2575.7,1856.8,2575.8,1789.2z M2587.5,2120.4c-4.6-16.3-8.5-37.9-9.8-66.7c-0.2-4.4-0.4-9.8-0.5-15.8   c40.8-186.2,191.7-192.4,233-190.3c-23,145.8-131.7,188.9-136.5,190.7l0.1,0.2C2644.2,2050.7,2612.8,2074.8,2587.5,2120.4z    M2723.8,1769.2c14.3-23.9,53.4-25,70.3-24.2c2.6,36.3-19.5,75.2-25.2,84.6c-17.2,2.2-37.3,6.4-58.2,14   C2715.6,1826.6,2721.6,1800.4,2723.8,1769.2z M2712.3,1659.6l0.6,0.2c10.4-36,39.4-49.3,59.5-54.2   c-21.3,41.7-23.3,101.8-23.2,123.7c-8.5,2.3-16.9,5.7-24.5,10.7C2724.3,1714.6,2720.9,1687.2,2712.3,1659.6z M2680.9,2057.2   L2680.9,2057.2c0.6-0.1,2.8-1,5.8-2.4c28.2-10.4,53.8-8.5,67.8-6c-39.1,81.8-119.4,89.1-152.9,88.1   C2624.8,2091.8,2653.8,2068.7,2680.9,2057.2z M2958.7,1819.5c10.8,70.5-6.7,126.4-51.7,166.4c-0.1-0.7,0-1.5-0.1-2.2   c-0.3-4.2-0.9-8.5-1.9-12.6c-0.5-2.1-1.2-4.2-2.2-6.2c-1-2-3.1-3.8-5.3-3.4c4,1.7,2.9,6.3,2.4,9.8c-0.7,3.8-1.8,7.5-3.1,11.2   c-2,5.8-4.5,11.6-7.1,17.2l-1.3,0.9l-0.8,3.8c-0.3,1.4-31.5,138.3-143.4,159.4l-2.6,0.5l-0.7,0.5l-37.8,9l18.4,4.3   c-15.1,8.7-37.9,18.6-61,16.3c-17.9-1.8-33.6-10.9-46.7-27l-2.5-2.2c-0.1-0.1-3.1-2.2-7.3-8c0.7,0,1.4,0,2.1,0   c41.9,0,132-12.2,172-111.8l4-10.1l-10.3-3.4c-0.5-0.2-16.8-5.2-40.7-5c39-30.7,88.2-88,100.7-187.5l1.3-10l-10-1.3   c-0.5,0-11.9-1.3-29.8-0.6c10.6-20.4,26.1-58.1,19.8-93.8l-1.3-7.4l-7.4-0.9c-1.3-0.2-16.4-1.9-34.9,0.1   c0.3-26.7,3.9-94,31.2-126.3l14.2-16.7H2793c-23.5,0-68.3,11.2-90.7,50.7c-2.7-6.1-5.5-12.2-8.8-18.3   c-53.8-98.7-47.5-122.1-47.2-123.1l-17.7-9.9c-0.4,0.6-0.8,1.4-1.2,2.3c-2.2,4.8-10.5,23.5-17.8,51.3   c-10.6-10.2-25.4-27.5-32.1-49.6c0.1-10.6,0.2-18.1,0.2-21.6c3.8-7.8,21.6-40.7,56.2-47.9c33-6.9,72.2,10.9,116.5,53l2.7,2.5   l3.7,0.2c0.8,0.1,77.2,5.9,126.1,64.7c33.8,40.7,46.8,97.3,38.5,168l-0.4,3.3l0.5,0.9c0.1,3.5,0.1,7.2-0.2,10.9   c-0.4,5.1-1.1,10.1-2.1,15.2c-2,10.2-5.4,20.1-10.4,29.7c7.6-7.5,14.4-16.4,19.9-26.1c1.4-2.4,2.4-5,3.7-7.5   C2941,1750.9,2953.1,1783,2958.7,1819.5z" style="fill: #CD8E33; fill-opacity: 1;"></path><circle cx="2818.1" cy="1358" r="25.4" style="fill: #CD8E33; fill-opacity: 1;"></circle><circle cx="2911.3" cy="997" r="47.5" style="fill: #CD8E33; fill-opacity: 1;"></circle><circle cx="3123.2" cy="1466.5" r="32.2" style="fill: #CD8E33; fill-opacity: 1;"></circle><circle cx="2030" cy="1415" r="20.3" style="fill: #CD8E33; fill-opacity: 1;"></circle><circle cx="2180.9" cy="991.9" r="25.4" style="fill: #CD8E33; fill-opacity: 1;"></circle><circle cx="1875.8" cy="1581.7" r="8.5" style="fill: #CD8E33; fill-opacity: 1;"></circle><circle cx="2380" cy="1167.3" r="11" style="fill: #CD8E33; fill-opacity: 1;"></circle><polygon points="1772.4,1277.2 1764.8,1291.1 1751,1298.7 1764.8,1306.3 1772.4,1320.1 1780,1306.3 1793.9,1298.7 1780,1291.1  " style="fill: #CD8E33; fill-opacity: 1;"></polygon><polygon points="2331.7,877 2348,847.2 2377.8,830.9 2348,814.6 2331.7,784.8 2315.4,814.6 2285.6,830.9 2315.4,847.2  " style="fill: #CD8E33; fill-opacity: 1;"></polygon><polygon points="2523.3,1258.7 2516.7,1270.7 2504.8,1277.2 2516.7,1283.8 2523.3,1295.8 2529.9,1283.8 2541.8,1277.2    2529.9,1270.7  " style="fill: #CD8E33; fill-opacity: 1;"></polygon><polygon points="3232.3,1147.2 3223.1,1130.4 3214,1147.2 3197.3,1156.3 3214,1165.5 3223.1,1182.2 3232.3,1165.5 3249,1156.3  " style="fill: #CD8E33; fill-opacity: 1;"></polygon><polygon points="3175.7,1608.7 3166.7,1625.2 3150.2,1634.2 3166.7,1643.2 3175.7,1659.7 3184.7,1643.2 3201.2,1634.2    3184.7,1625.2  " style="fill: #CD8E33; fill-opacity: 1;"></polygon></svg> <svg y="323.23500061035156" viewBox="0.9100000262260437 2.2799999713897705 88.00999450683594 8.030000686645508" x="243.49500762939454" height="8.030000686645508" width="88.00999450683594" style="overflow: visible;"><g fill="#545454" fill-opacity="1" style=""><path d="M3.78 7.14L1.94 7.14L1.94 10.21L0.91 10.21L0.91 2.38L3.79 2.38Q5.08 2.38 5.80 3.04Q6.53 3.70 6.53 4.77L6.53 4.77Q6.53 5.91 5.82 6.53Q5.11 7.14 3.78 7.14L3.78 7.14ZM1.94 3.23L1.94 6.30L3.79 6.30Q4.62 6.30 5.06 5.91Q5.50 5.52 5.50 4.79L5.50 4.79Q5.50 4.09 5.06 3.67Q4.62 3.25 3.85 3.23L3.85 3.23L1.94 3.23ZM13.15 6.72L13.15 6.72Q11.82 6.34 11.22 5.78Q10.62 5.23 10.62 4.41L10.62 4.41Q10.62 3.49 11.35 2.88Q12.09 2.28 13.27 2.28L13.27 2.28Q14.08 2.28 14.71 2.59Q15.34 2.90 15.69 3.45Q16.04 4.00 16.04 4.65L16.04 4.65L15.00 4.65Q15.00 3.94 14.55 3.53Q14.10 3.13 13.27 3.13L13.27 3.13Q12.51 3.13 12.09 3.46Q11.66 3.80 11.66 4.39L11.66 4.39Q11.66 4.87 12.06 5.20Q12.47 5.53 13.44 5.81Q14.42 6.08 14.97 6.41Q15.52 6.74 15.79 7.18Q16.05 7.62 16.05 8.22L16.05 8.22Q16.05 9.17 15.31 9.74Q14.57 10.31 13.33 10.31L13.33 10.31Q12.52 10.31 11.82 10.00Q11.13 9.69 10.75 9.16Q10.37 8.62 10.37 7.94L10.37 7.94L11.41 7.94Q11.41 8.65 11.93 9.06Q12.45 9.47 13.33 9.47L13.33 9.47Q14.15 9.47 14.58 9.14Q15.02 8.80 15.02 8.23Q15.02 7.65 14.61 7.34Q14.21 7.03 13.15 6.72ZM21.48 2.38L21.48 10.21L20.45 10.21L20.45 2.38L21.48 2.38ZM31.08 7.72L32.12 7.72Q31.97 8.96 31.20 9.64Q30.43 10.31 29.15 10.31L29.15 10.31Q27.77 10.31 26.93 9.32Q26.10 8.33 26.10 6.66L26.10 6.66L26.10 5.91Q26.10 4.82 26.49 3.99Q26.88 3.16 27.59 2.72Q28.30 2.28 29.24 2.28L29.24 2.28Q30.49 2.28 31.24 2.97Q31.99 3.67 32.12 4.90L32.12 4.90L31.08 4.90Q30.95 3.96 30.50 3.54Q30.05 3.13 29.24 3.13L29.24 3.13Q28.26 3.13 27.69 3.86Q27.13 4.59 27.13 5.94L27.13 5.94L27.13 6.69Q27.13 7.97 27.66 8.72Q28.20 9.47 29.15 9.47L29.15 9.47Q30.01 9.47 30.47 9.08Q30.93 8.69 31.08 7.72L31.08 7.72ZM42.54 6.05L42.54 6.55Q42.54 7.70 42.15 8.55Q41.77 9.41 41.06 9.86Q40.35 10.31 39.40 10.31L39.40 10.31Q38.48 10.31 37.77 9.86Q37.05 9.40 36.66 8.56Q36.26 7.72 36.25 6.62L36.25 6.62L36.25 6.05Q36.25 4.93 36.64 4.06Q37.03 3.20 37.75 2.74Q38.47 2.28 39.39 2.28L39.39 2.28Q40.33 2.28 41.05 2.73Q41.77 3.19 42.15 4.05Q42.54 4.91 42.54 6.05L42.54 6.05ZM41.51 6.62L41.51 6.04Q41.51 4.65 40.96 3.91Q40.40 3.16 39.39 3.16L39.39 3.16Q38.42 3.16 37.85 3.91Q37.29 4.65 37.28 5.97L37.28 5.97L37.28 6.55Q37.28 7.90 37.84 8.67Q38.41 9.44 39.40 9.44L39.40 9.44Q40.40 9.44 40.95 8.71Q41.50 7.98 41.51 6.62L41.51 6.62ZM48.12 2.38L48.12 9.36L51.83 9.36L51.83 10.21L47.09 10.21L47.09 2.38L48.12 2.38ZM61.67 6.05L61.67 6.55Q61.67 7.70 61.29 8.55Q60.90 9.41 60.19 9.86Q59.48 10.31 58.54 10.31L58.54 10.31Q57.61 10.31 56.90 9.86Q56.18 9.40 55.79 8.56Q55.39 7.72 55.38 6.62L55.38 6.62L55.38 6.05Q55.38 4.93 55.77 4.06Q56.17 3.20 56.88 2.74Q57.60 2.28 58.52 2.28L58.52 2.28Q59.46 2.28 60.18 2.73Q60.90 3.19 61.29 4.05Q61.67 4.91 61.67 6.05L61.67 6.05ZM60.65 6.62L60.65 6.04Q60.65 4.65 60.09 3.91Q59.53 3.16 58.52 3.16L58.52 3.16Q57.55 3.16 56.99 3.91Q56.42 4.65 56.41 5.97L56.41 5.97L56.41 6.55Q56.41 7.90 56.98 8.67Q57.54 9.44 58.54 9.44L58.54 9.44Q59.53 9.44 60.08 8.71Q60.63 7.98 60.65 6.62L60.65 6.62ZM71.99 6.31L71.99 9.18Q71.60 9.75 70.88 10.03Q70.17 10.31 69.23 10.31L69.23 10.31Q68.27 10.31 67.53 9.86Q66.79 9.42 66.38 8.59Q65.98 7.76 65.97 6.67L65.97 6.67L65.97 5.99Q65.97 4.22 66.79 3.25Q67.62 2.28 69.11 2.28L69.11 2.28Q70.33 2.28 71.08 2.90Q71.83 3.53 71.99 4.68L71.99 4.68L70.96 4.68Q70.67 3.13 69.11 3.13L69.11 3.13Q68.08 3.13 67.54 3.85Q67.01 4.58 67.00 5.96L67.00 5.96L67.00 6.60Q67.00 7.92 67.60 8.69Q68.21 9.47 69.23 9.47L69.23 9.47Q69.81 9.47 70.25 9.34Q70.68 9.21 70.97 8.91L70.97 8.91L70.97 7.15L69.16 7.15L69.16 6.31L71.99 6.31ZM77.82 2.38L77.82 10.21L76.79 10.21L76.79 2.38L77.82 2.38ZM87.87 10.21L87.12 8.16L83.84 8.16L83.11 10.21L82.04 10.21L85.03 2.38L85.93 2.38L88.92 10.21L87.87 10.21ZM85.48 3.66L84.15 7.32L86.81 7.32L85.48 3.66Z" transform="translate(0, 0)"></path></g></svg> <svg y="287.30499938964846" viewBox="2.4600000381469727 5.789999961853027 191.489990234375 22.400001525878906" x="191.76000091552734" height="22.400001525878906" width="191.489990234375" style="overflow: visible;"><g fill="#545454" fill-opacity="1" style=""><path d="M26.21 27.81L21.25 27.81Q21.63 27.74 22.08 27.12Q22.53 26.50 22.53 24.80L22.53 24.80L22.53 8.80L14.14 28.16L5.63 8.83L5.63 24.64Q5.63 26.37 6.19 27.06Q6.75 27.74 7.20 27.81L7.20 27.81L2.46 27.81Q2.94 27.74 3.52 27.09Q4.10 26.43 4.10 24.64L4.10 24.64L4.10 8.61Q4.10 7.07 3.55 6.50Q3.01 5.92 2.46 5.79L2.46 5.79L6.78 5.79L14.62 23.68L22.34 5.79L26.21 5.79Q25.79 5.86 25.31 6.46Q24.83 7.07 24.83 8.70L24.83 8.70L24.83 24.93Q24.83 26.53 25.31 27.14Q25.79 27.74 26.21 27.81L26.21 27.81ZM42.66 25.95Q41.06 28.19 38.72 28.19L38.72 28.19Q37.09 28.19 36.03 27.12Q34.98 26.05 34.98 23.84L34.98 23.84L34.98 19.30Q34.98 17.98 34.58 17.28Q34.18 16.58 33.66 16.32Q33.15 16.06 33.15 16.16L33.15 16.16L37.02 16.16L37.02 23.36Q37.02 24.86 37.84 25.66Q38.66 26.46 39.78 26.46L39.78 26.46Q40.90 26.46 41.78 25.71Q42.66 24.96 42.66 23.74L42.66 23.74L42.66 19.07Q42.66 17.82 42.34 17.18Q42.02 16.54 41.60 16.32Q41.18 16.10 41.18 16.16L41.18 16.16L44.70 16.16L44.70 24.19Q44.70 25.54 45.14 26.03Q45.57 26.53 46.11 26.53L46.11 26.53L46.30 26.53L42.66 28.19L42.66 25.95ZM56.99 28.19Q55.42 28.19 54.62 27.12Q53.82 26.05 53.82 24.54L53.82 24.54L53.82 17.44L52.03 17.44L55.87 13.09L55.87 16.16L59.97 16.16L59.97 17.44L55.87 17.44L55.87 24.19Q55.87 25.41 56.51 26.03Q57.15 26.66 57.98 26.66L57.98 26.66Q58.62 26.66 59.23 26.27Q59.84 25.89 60.22 25.22L60.22 25.22Q59.74 28.19 56.99 28.19L56.99 28.19ZM75.23 25.95Q73.63 28.19 71.30 28.19L71.30 28.19Q69.66 28.19 68.61 27.12Q67.55 26.05 67.55 23.84L67.55 23.84L67.55 19.30Q67.55 17.98 67.15 17.28Q66.75 16.58 66.24 16.32Q65.73 16.06 65.73 16.16L65.73 16.16L69.60 16.16L69.60 23.36Q69.60 24.86 70.42 25.66Q71.23 26.46 72.35 26.46L72.35 26.46Q73.47 26.46 74.35 25.71Q75.23 24.96 75.23 23.74L75.23 23.74L75.23 19.07Q75.23 17.82 74.91 17.18Q74.59 16.54 74.18 16.32Q73.76 16.10 73.76 16.16L73.76 16.16L77.28 16.16L77.28 24.19Q77.28 25.54 77.71 26.03Q78.14 26.53 78.69 26.53L78.69 26.53L78.88 26.53L75.23 28.19L75.23 25.95ZM94.75 28.19Q93.73 28.16 93.02 27.65Q92.32 27.14 92.22 26.46L92.22 26.46Q91.65 27.30 90.70 27.74Q89.76 28.19 88.83 28.19L88.83 28.19Q87.36 28.19 86.37 27.34Q85.38 26.50 85.38 25.12L85.38 25.12Q85.38 21.57 92.03 21.57L92.03 21.57L92.03 21.22Q92.03 19.46 91.52 18.62L91.52 18.62Q90.82 17.44 89.22 17.44L89.22 17.44Q87.97 17.44 87.15 18.18Q86.34 18.91 86.34 20.10L86.34 20.10Q86.14 19.78 86.03 19.52Q85.92 19.26 85.92 18.82L85.92 18.82Q85.92 17.66 87.01 16.78Q88.10 15.90 89.86 15.90L89.86 15.90Q92.35 15.90 93.41 17.57L93.41 17.57Q93.76 18.08 93.92 18.85Q94.08 19.62 94.08 20.86L94.08 20.86L94.08 24.67Q94.08 25.66 94.64 26.21Q95.20 26.75 96.22 26.75L96.22 26.75L96.64 26.75L94.75 28.19ZM92.03 22.53Q89.47 22.53 88.58 23.17Q87.68 23.81 87.68 24.90L87.68 24.90Q87.68 25.79 88.16 26.30Q88.64 26.82 89.44 26.82L89.44 26.82Q90.05 26.82 90.59 26.53Q91.14 26.24 91.52 25.73L91.52 25.73Q92.03 25.06 92.03 23.90L92.03 23.90L92.03 22.53ZM126.85 27.81L121.89 27.81Q122.27 27.74 122.72 27.12Q123.17 26.50 123.17 24.80L123.17 24.80L123.17 8.80L114.78 28.16L106.27 8.83L106.27 24.64Q106.27 26.37 106.83 27.06Q107.39 27.74 107.84 27.81L107.84 27.81L103.10 27.81Q103.58 27.74 104.16 27.09Q104.74 26.43 104.74 24.64L104.74 24.64L104.74 8.61Q104.74 7.07 104.19 6.50Q103.65 5.92 103.10 5.79L103.10 5.79L107.42 5.79L115.26 23.68L122.98 5.79L126.85 5.79Q126.43 5.86 125.95 6.46Q125.47 7.07 125.47 8.70L125.47 8.70L125.47 24.93Q125.47 26.53 125.95 27.14Q126.43 27.74 126.85 27.81L126.85 27.81ZM139.87 28.19Q138.14 28.19 136.90 27.34Q135.65 26.50 134.99 25.14Q134.34 23.78 134.34 22.24L134.34 22.24Q134.34 20.26 135.12 18.82Q135.90 17.38 137.15 16.64Q138.40 15.90 139.74 15.90L139.74 15.90Q141.66 15.90 143.06 17.30Q144.45 18.69 144.58 21.15L144.58 21.15L136.26 21.15Q136.26 22.69 136.83 23.86Q137.41 25.02 138.38 25.65Q139.36 26.27 140.51 26.27L140.51 26.27Q143.52 26.27 144.58 24.35L144.58 24.35Q144.29 26.08 143.01 27.14Q141.73 28.19 139.87 28.19L139.87 28.19ZM139.52 16.96Q138.27 16.96 137.38 17.84Q136.48 18.72 136.29 20.13L136.29 20.13L142.11 20.13Q142.11 18.66 141.33 17.81Q140.54 16.96 139.52 16.96L139.52 16.96ZM154.46 18.08Q155.20 17.09 156.21 16.50Q157.22 15.90 158.34 15.90L158.34 15.90Q160.06 15.90 161.10 17.01Q162.14 18.11 162.14 20.19L162.14 20.19L162.14 24.64Q162.14 25.98 162.43 26.69Q162.72 27.39 163.07 27.65Q163.42 27.90 163.42 27.81L163.42 27.81L158.82 27.81Q158.82 27.90 159.17 27.66Q159.52 27.42 159.81 26.72Q160.10 26.02 160.10 24.61L160.10 24.61L160.10 20.96Q160.10 19.87 159.81 19.23Q159.52 18.59 159.04 18.18L159.04 18.18Q158.30 17.57 157.28 17.57L157.28 17.57Q156.13 17.57 155.30 18.32Q154.46 19.07 154.46 20.42L154.46 20.42L154.46 24.61Q154.46 25.98 154.75 26.69Q155.04 27.39 155.41 27.65Q155.78 27.90 155.78 27.81L155.78 27.81L151.17 27.81Q151.17 27.90 151.52 27.66Q151.87 27.42 152.14 26.70Q152.42 25.98 152.42 24.61L152.42 24.61L152.42 19.78Q152.42 18.43 151.98 17.94Q151.55 17.44 151.01 17.44L151.01 17.44L154.46 15.90L154.46 18.08ZM174.43 28.19Q172.86 28.19 172.06 27.12Q171.26 26.05 171.26 24.54L171.26 24.54L171.26 17.44L169.47 17.44L173.31 13.09L173.31 16.16L177.41 16.16L177.41 17.44L173.31 17.44L173.31 24.19Q173.31 25.41 173.95 26.03Q174.59 26.66 175.42 26.66L175.42 26.66Q176.06 26.66 176.67 26.27Q177.28 25.89 177.66 25.22L177.66 25.22Q177.18 28.19 174.43 28.19L174.43 28.19ZM189.25 28.19Q187.52 28.19 186.27 27.34Q185.02 26.50 184.37 25.14Q183.71 23.78 183.71 22.24L183.71 22.24Q183.71 20.26 184.50 18.82Q185.28 17.38 186.53 16.64Q187.78 15.90 189.12 15.90L189.12 15.90Q191.04 15.90 192.43 17.30Q193.82 18.69 193.95 21.15L193.95 21.15L185.63 21.15Q185.63 22.69 186.21 23.86Q186.78 25.02 187.76 25.65Q188.74 26.27 189.89 26.27L189.89 26.27Q192.90 26.27 193.95 24.35L193.95 24.35Q193.66 26.08 192.38 27.14Q191.10 28.19 189.25 28.19L189.25 28.19ZM188.90 16.96Q187.65 16.96 186.75 17.84Q185.86 18.72 185.66 20.13L185.66 20.13L191.49 20.13Q191.49 18.66 190.70 17.81Q189.92 16.96 188.90 16.96L188.90 16.96Z" transform="translate(0, 0)"></path></g></svg></svg>